<?xml version="1.0" encoding="utf-8"?>
<!DOCTYPE svg PUBLIC "-//W3C//DTD SVG 1.1//EN" "http://www.w3.org/Graphics/SVG/1.1/DTD/svg11.dtd">
<svg version="1.1"
	 id="Ebene_1" shape-rendering="geometricPrecision" text-rendering="geometricPrecision" image-rendering="optimizeQuality"
	 xmlns="http://www.w3.org/2000/svg" xmlns:xlink="http://www.w3.org/1999/xlink" x="0px" y="0px" width="1666px" height="1666px"
	 viewBox="0 0 1666 1666" enable-background="new 0 0 1666 1666" xml:space="preserve">
<g>
	<polyline fill="#DA251D" points="1665.884,832.913 832.987,0.005 0,832.913 832.987,1665.847 1665.884,832.913 	"/>
	<path fill="#FFFFFF" d="M463.069,884.274c0,26.604-15.555,40.115-42.646,40.115H395.34v-81.71h29.106
		C449.008,842.681,463.069,858.232,463.069,884.274 M457.543,740.969c0,29.612-20.549,38.612-43.637,38.612H395.34V702.89h24.06
		C441.493,702.89,457.543,714.962,457.543,740.969z M553.342,891.351c0-47.104-27.593-75.189-71.24-82.709v-1.021
		c35.107-8.54,65.72-29.061,65.72-85.138c0-52.133-36.126-82.684-110.33-82.684H305.033v349.784H439.45
		C506.167,989.584,553.342,960.47,553.342,891.351z"/>
	<path fill="#FFFFFF" d="M730.194,871.792c0,24.473-4.505,66.683-46.133,66.683c-18.588,0-31.078-9.119-31.078-32.149
		c0-30.552,26.522-43.039,66.688-43.039h10.523V871.792 M813.456,989.584c-1.496-15.606-2.986-36.605-2.986-57.706V819.142
		c0-53.569-18.091-96.658-109.883-96.658c-43.646,0-76.237,9.009-97.789,17.042l2.988,64.616
		c19.081-12.018,47.203-24.562,75.246-24.562c35.659,0,49.168,19.04,49.168,35.609v7.98h-23.065
		c-90.774,0-134.416,31.059-134.416,89.18c0,50.109,33.067,83.205,79.253,83.205c31.569,0,52.154-13.039,78.229-42.101
		c0,12.038,2.011,24.027,2.984,36.128L813.456,989.584L813.456,989.584z"/>
	<path fill="#FFFFFF" d="M1100.8,989.584v-182.93c0-57.625-34.67-84.172-79.227-84.172c-30.634,0-53.672,12.48-68.75,39.082h-1.468
		c0.998-9.554,1.986-21.57,1.986-32.075V613.666H863.07v375.918h90.269V846.219c0-27.072,10.058-50.61,32.621-50.61
		c17.024,0,24.558,12.018,24.558,37.043v156.934L1100.8,989.584"/>
	<path fill="#FFFFFF" d="M1391.253,989.584v-182.93c0-57.625-34.608-84.172-79.223-84.172c-51.159,0-68.749,35.548-73.729,49.586
		h-1.044c0-14.53-0.523-33.098-1.986-43.593h-84.729c1.413,12.022,2.986,33.562,2.986,53.147v207.96h90.271V846.219
		c0-27.072,10.003-50.61,32.576-50.61c17.117,0,24.612,12.018,24.612,37.043v156.934L1391.253,989.584"/>
</g>
</svg>
